<svg width="40" height="40" viewBox="0 0 40 40" fill="none" xmlns="http://www.w3.org/2000/svg">
  <defs>
    <linearGradient id="logoGradient" x1="0%" y1="0%" x2="100%" y2="100%">
      <stop offset="0%" style="stop-color:#FF9933;stop-opacity:1" />
      <stop offset="100%" style="stop-color:#FF6B35;stop-opacity:1" />
    </linearGradient>
  </defs>
  
  <!-- Outer circle representing unity -->
  <circle cx="20" cy="20" r="18" stroke="url(#logoGradient)" stroke-width="2" fill="none"/>
  
  <!-- Inner mandala pattern -->
  <circle cx="20" cy="20" r="12" fill="url(#logoGradient)" opacity="0.2"/>
  
  <!-- Warli-style human figures -->
  <g stroke="url(#logoGradient)" stroke-width="1.5" fill="none">
    <!-- Center figure -->
    <circle cx="20" cy="16" r="2"/>
    <line x1="20" y1="18" x2="20" y2="26"/>
    <line x1="18" y1="22" x2="22" y2="22"/>
    <line x1="20" y1="26" x2="18" y2="30"/>
    <line x1="20" y1="26" x2="22" y2="30"/>
    
    <!-- Side figures (smaller) -->
    <circle cx="12" cy="18" r="1.5"/>
    <line x1="12" y1="19.5" x2="12" y2="25"/>
    <line x1="11" y1="22" x2="13" y2="22"/>
    <line x1="12" y1="25" x2="10.5" y2="27.5"/>
    <line x1="12" y1="25" x2="13.5" y2="27.5"/>
    
    <circle cx="28" cy="18" r="1.5"/>
    <line x1="28" y1="19.5" x2="28" y2="25"/>
    <line x1="27" y1="22" x2="29" y2="22"/>
    <line x1="28" y1="25" x2="26.5" y2="27.5"/>
    <line x1="28" y1="25" x2="29.5" y2="27.5"/>
  </g>
  
  <!-- Decorative dots -->
  <circle cx="20" cy="8" r="1" fill="url(#logoGradient)"/>
  <circle cx="20" cy="32" r="1" fill="url(#logoGradient)"/>
  <circle cx="8" cy="20" r="1" fill="url(#logoGradient)"/>
  <circle cx="32" cy="20" r="1" fill="url(#logoGradient)"/>
</svg>