<svg width="100" height="100" viewBox="0 0 100 100" xmlns="http://www.w3.org/2000/svg">
  <defs>
    <pattern id="traditionalPattern" x="0" y="0" width="50" height="50" patternUnits="userSpaceOnUse">
      <!-- Paisley motif -->
      <path d="M25 10 C35 10, 40 20, 35 30 C30 35, 20 35, 15 25 C10 15, 15 10, 25 10 Z" 
            fill="#FF9933" opacity="0.1"/>
      <!-- Small dots -->
      <circle cx="10" cy="10" r="1.5" fill="#FF9933" opacity="0.15"/>
      <circle cx="40" cy="40" r="1" fill="#4B0082" opacity="0.1"/>
      <circle cx="15" cy="40" r="1" fill="#FFD700" opacity="0.12"/>
      <circle cx="35" cy="15" r="1.5" fill="#E34234" opacity="0.08"/>
      <!-- Traditional lines -->
      <line x1="0" y1="25" x2="50" y2="25" stroke="#FF9933" stroke-width="0.5" opacity="0.05"/>
      <line x1="25" y1="0" x2="25" y2="50" stroke="#4B0082" stroke-width="0.5" opacity="0.05"/>
    </pattern>
    
    <pattern id="mandalaPattern" x="0" y="0" width="80" height="80" patternUnits="userSpaceOnUse">
      <!-- Central mandala -->
      <circle cx="40" cy="40" r="20" fill="none" stroke="#FF9933" stroke-width="1" opacity="0.08"/>
      <circle cx="40" cy="40" r="15" fill="none" stroke="#4B0082" stroke-width="0.8" opacity="0.06"/>
      <circle cx="40" cy="40" r="10" fill="none" stroke="#FFD700" stroke-width="0.6" opacity="0.1"/>
      <!-- Petals -->
      <g transform="translate(40,40)">
        <ellipse rx="8" ry="3" fill="#FF9933" opacity="0.05" transform="rotate(0)"/>
        <ellipse rx="8" ry="3" fill="#FF9933" opacity="0.05" transform="rotate(45)"/>
        <ellipse rx="8" ry="3" fill="#FF9933" opacity="0.05" transform="rotate(90)"/>
        <ellipse rx="8" ry="3" fill="#FF9933" opacity="0.05" transform="rotate(135)"/>
      </g>
    </pattern>
  </defs>
  
  <!-- Use patterns -->
  <rect width="100" height="100" fill="url(#traditionalPattern)"/>
  <rect width="100" height="100" fill="url(#mandalaPattern)" opacity="0.5"/>
</svg>